<svg width="512" height="512" viewBox="0 0 96 96" fill="none" xmlns="http://www.w3.org/2000/svg">
<rect width="96" height="96" fill="black"/>
<path d="M74.6667 74.6667H56.1597C56.1597 74.6667 52.2938 64.5817 50.7036 54.3365C47.5231 33.6862 74.6667 42.1704 74.6667 42.1704V57.5648C74.6667 57.5648 51.6906 42.5973 56.8451 53.5628C57.2564 54.4433 57.7773 55.2703 58.3531 56.0441C65.2624 65.3287 74.6667 74.6667 74.6667 74.6667Z" fill="white"/>
<path d="M21.3333 74.6667H39.8403C39.8403 74.6667 43.7062 64.5816 45.2965 54.3365C48.4769 33.6862 21.3333 42.1704 21.3333 42.1704V57.5648C21.3333 57.5648 44.3094 42.5973 39.1549 53.5628C38.7436 54.4432 38.2227 55.2703 37.6469 56.044C30.7376 65.3287 21.3333 74.6667 21.3333 74.6667Z" fill="white"/>
<path d="M58.424 31.5549L47.9383 21.3334L37.4526 31.5549L47.9383 41.7764L58.424 31.5549Z" fill="white"/>
</svg>
